<svg width="242" height="453" viewBox="0 0 242 453" fill="none" xmlns="http://www.w3.org/2000/svg">
<path d="M241.586 117.561C241.96 116.28 241 115 239.666 115H171.85C170.953 115 170.166 115.597 169.924 116.46L101.822 359.218C99.3173 368.147 106.028 377 115.302 377H122.347C148.119 377 170.799 359.995 178.022 335.256L241.586 117.561Z" fill="#FF0000"/>
<path d="M1.08142 117.561C0.707646 116.28 1.66768 115 3.00126 115H70.8176C71.7141 115 72.5011 115.597 72.7433 116.46L138.581 351.148C142.223 364.129 132.466 377 118.984 377C94.0044 377 72.0212 360.518 65.02 336.54L1.08142 117.561Z" fill="#FF0000"/>
<path d="M238 104C239.657 104 241.005 102.656 240.95 101C240.527 88.3657 237.439 75.8943 231.827 64.2009C225.772 51.5831 216.896 40.1182 205.706 30.4609C194.517 20.8036 181.233 13.143 166.613 7.91653C151.994 2.69004 136.324 -5.96987e-07 120.5 0C104.676 5.96987e-07 89.0064 2.69004 74.3866 7.91653C59.7669 13.143 46.4831 20.8036 35.2936 30.4609C24.1042 40.1182 15.2282 51.5831 9.17251 64.2009C3.56051 75.8943 0.472504 88.3657 0.0501253 101C-0.00523196 102.656 1.34315 104 3 104L68.5452 104C70.202 104 71.5324 102.655 71.6685 101.003C72.0411 96.4805 73.2554 92.0322 75.2717 87.8311C77.7319 82.7049 81.3379 78.0471 85.8837 74.1237C90.4296 70.2003 95.8263 67.0881 101.766 64.9648C107.705 62.8414 114.071 61.7486 120.5 61.7486C126.929 61.7486 133.295 62.8414 139.234 64.9648C145.174 67.0881 150.57 70.2003 155.116 74.1237C159.662 78.0471 163.268 82.7049 165.728 87.8311C167.745 92.0322 168.959 96.4805 169.332 101.003C169.468 102.655 170.798 104 172.455 104H238Z" fill="#FF0000"/>
<path d="M182.5 423.5C182.5 425.751 181.479 428.331 178.743 431.158C175.982 434.011 171.72 436.832 166.027 439.32C154.657 444.289 138.565 447.5 120.5 447.5C102.435 447.5 86.3428 444.289 74.9728 439.32C69.2796 436.832 65.018 434.011 62.2567 431.158C59.5208 428.331 58.5 425.751 58.5 423.5C58.5 421.249 59.5208 418.669 62.2567 415.842C65.018 412.989 69.2796 410.168 74.9728 407.68C86.3428 402.711 102.435 399.5 120.5 399.5C138.565 399.5 154.657 402.711 166.027 407.68C171.72 410.168 175.982 412.989 178.743 415.842C181.479 418.669 182.5 421.249 182.5 423.5Z" stroke="#FF0000" stroke-width="11"/>
<path d="M154.5 423C154.5 423.52 154.281 424.454 152.988 425.787C151.67 427.146 149.495 428.621 146.379 429.979C140.166 432.688 131.197 434.5 121 434.5C110.803 434.5 101.834 432.688 95.6206 429.979C92.5052 428.621 90.3305 427.146 89.012 425.787C87.7188 424.454 87.5 423.52 87.5 423C87.5 422.48 87.7188 421.546 89.012 420.213C90.3305 418.854 92.5052 417.379 95.6206 416.021C101.834 413.312 110.803 411.5 121 411.5C131.197 411.5 140.166 413.312 146.379 416.021C149.495 417.379 151.67 418.854 152.988 420.213C154.281 421.546 154.5 422.48 154.5 423Z" stroke="#FF0000" stroke-width="11"/>
</svg>
